#!OML:ASF X:\für Bonn\!DataBase\2005_08_11_Bastian_Final\c3d\Bastian.ASF
:FULLY-SPECIFIED
:DEGREES
31
root -24.399 17.427 -25.854 177.223 129.895 -548.584
lowerback 5.58389 -2.85068 0.146494
upperback 6.45466 -3.73644 2.53721
thorax 3.71308 -1.87925 2.62399
lowerneck -4.22161 -2.9881 -7.15108
upperneck -1.83823 -3.64249 13.1114
head 0.551828 -1.69479 5.04415
rclavicle 8.94531e-015 1.13307e-014
rhumerus -43.1703 0.547122 -79.8602
rradius 37.9262
rwrist -3.81492
rhand -10.9237 2.16377
rfingers 7.12502
rthumb 15.094 -27.2659
lclavicle 8.94531e-015 1.13307e-014
lhumerus -27.3958 -24.2421 95.8381
lradius 63.4263
lwrist 13.115
lhand -10.129 -8.41895
lfingers 7.12502
lthumb 15.8595 20.9515
rfemur -46.5863 -3.11631 25.4533
rtibia 58.0705
rfoot -24.9272 -0.938473
rtoes -13.4485
lfemur 17.8524 9.78935 -14.869
ltibia -9.54166e-015
lfoot -18.3175 9.39421
ltoes -22.0176
32
root -24.3256 17.394 -25.7784 177.414 129.803 -548.436
lowerback 5.76982 -2.94585 0.09788
upperback 6.45548 -3.85997 2.56787
thorax 3.6221 -1.94319 2.69524
lowerneck -4.23597 -2.9089 -7.20578
upperneck -2.06373 -3.51058 13.138
head 0.476788 -1.63254 5.06699
rclavicle -2.5842e-015 -2.36554e-014
rhumerus -43.7668 0.73751 -79.6615
rradius 37.2521
rwrist -3.92642
rhand -10.9619 2.02416
rfingers 7.12502
rthumb 15.0572 -27.4083
lclavicle -2.5842e-015 -2.36554e-014
lhumerus -27.3516 -24.5117 96.1979
lradius 64.8794
lwrist 12.8925
lhand -9.83329 -8.53058
lfingers 7.12502
lthumb 16.1442 20.8171
rfemur -47.1306 -2.991 25.1225
rtibia 57.8823
rfoot -24.984 -0.994619
rtoes -13.755
lfemur 18.1682 9.66846 -14.9088
ltibia 1.59028e-014
lfoot -18.721 9.40953
ltoes -21.9101
33
root -24.2504 17.36 -25.6998 177.548 129.721 -548.362
lowerback 5.94027 -3.02633 0.119504
upperback 6.46643 -3.96178 2.5886
thorax 3.54395 -1.99297 2.71608
lowerneck -4.2612 -2.82629 -7.20436
upperneck -2.27687 -3.37654 13.1762
head 0.406135 -1.56864 5.08367
rclavicle -3.77691e-014 -1.27222e-014
rhumerus -44.3789 0.800807 -79.4533
rradius 36.586
rwrist -3.876
rhand -10.933 2.06038
rfingers 7.12502
rthumb 15.085 -27.37
lclavicle -3.77691e-014 -1.27222e-014
lhumerus -27.318 -24.8832 96.5383
lradius 66.4193
lwrist 12.7709
lhand -9.60099 -8.57423
lfingers 7.12502
lthumb 16.3679 20.7551
rfemur -47.6352 -2.81288 24.8273
rtibia 57.6858
rfoot -25.0466 -1.08298
rtoes -13.9967
lfemur 18.4978 9.55148 -14.8839
ltibia 3.18055e-015
lfoot -19.1066 9.41438
ltoes -21.8797
34
root -24.173 17.3259 -25.619 177.684 129.603 -548.294
lowerback 6.10672 -3.1204 0.14849
upperback 6.4687 -4.08139 2.61917
thorax 3.4602 -2.05157 2.74397
lowerneck -4.26831 -2.75281 -7.16182
upperneck -2.504 -3.25667 13.1243
head 0.327012 -1.51362 5.06546
rclavicle 2.01766e-014 -2.04748e-014
rhumerus -45.014 0.889172 -79.2354
rradius 35.864
rwrist -3.61847
rhand -10.8956 2.35349
rfingers 7.12502
rthumb 15.121 -27.0741
lclavicle 2.01766e-014 -2.04748e-014
lhumerus -27.3373 -25.214 96.9106
lradius 68.075
lwrist 12.6288
lhand -9.34401 -8.57606
lfingers 7.12502
lthumb 16.6153 20.7327
rfemur -48.1173 -2.62797 24.502
rtibia 57.4761
rfoot -25.0963 -1.16577
rtoes -14.3363
lfemur 18.8218 9.39651 -14.8524
ltibia 1.59028e-014
lfoot -19.4727 9.4175
ltoes -21.9282
35
root -24.0928 17.2888 -25.5359 177.824 129.464 -548.191
lowerback 6.28745 -3.21573 0.156325
upperback 6.48356 -4.20276 2.6503
thorax 3.38364 -2.1119 2.78534
lowerneck -4.35499 -2.68977 -7.08052
upperneck -2.6442 -3.15777 13.0109
head 0.286454 -1.46516 5.01959
rclavicle -3.47873e-015 -3.35946e-014
rhumerus -45.6915 0.994753 -79.0192
rradius 35.2304
rwrist -3.24059
rhand -10.7861 2.69113
rfingers 7.12502
rthumb 15.2266 -26.7285
lclavicle -3.47873e-015 -3.35946e-014
lhumerus -27.3669 -25.5949 97.2857
lradius 69.7973
lwrist 12.4647
lhand -9.14897 -8.59605
lfingers 7.12502
lthumb 16.803 20.6969
rfemur -48.5355 -2.45458 24.1338
rtibia 57.271
rfoot -25.1521 -1.18891
rtoes -14.7906
lfemur 19.1892 9.21803 -14.8365
ltibia -2.22639e-014
lfoot -19.8592 9.38879
ltoes -21.7353
